<?xml version="1.0" encoding="UTF-8"?>
<svg width="28px" height="28px" viewBox="0 0 28 28" version="1.1" xmlns="http://www.w3.org/2000/svg" xmlns:xlink="http://www.w3.org/1999/xlink">
    <title>BC22FB5B-CA66-4733-8EE2-5273C3B474C0</title>
    <g id="Page-1" stroke="none" stroke-width="1" fill="none" fill-rule="evenodd">
        <g id="PC_02_로그인A01_로그인" transform="translate(-982.000000, -534.000000)" fill="#3B1E1E">
            <g id="+-CONTENTS" transform="translate(788.000000, 178.000000)">
                <g id="login-with" transform="translate(34.000000, 340.000000)">
                    <g id="BtnLoginEmail" transform="translate(144.000000, 0.000000)">
                        <g id="icon-/-logo-/-icon_btn_kakao" transform="translate(16.000000, 16.000000)">
                            <path d="M14.5,6 C9.2528653,6 5,9.2747328 5,13.3143788 C5,15.9435395 6.80217727,18.2485844 9.50714979,19.5380665 C9.30815938,20.2597643 8.78764416,22.1549274 8.68285848,22.5601552 C8.55452161,23.0634488 8.87229188,23.0571327 9.08083929,22.9211703 C9.24399095,22.8154587 11.684098,21.1998662 12.7367334,20.502768 C13.3077642,20.5855422 13.8972263,20.6287576 14.5,20.6287576 C19.7467934,20.6287576 24,17.3536924 24,13.3143788 C24,9.2747328 19.7467934,6 14.5,6" id="Fill-1"></path>
                        </g>
                    </g>
                </g>
            </g>
        </g>
    </g>
</svg>