<?xml version="1.0" encoding="UTF-8"?>
<svg width="28px" height="28px" viewBox="0 0 28 28" version="1.1" xmlns="http://www.w3.org/2000/svg" xmlns:xlink="http://www.w3.org/1999/xlink">
    <title>92112624-D9AE-4726-823B-B3B63C270628</title>
    <g id="Page-1" stroke="none" stroke-width="1" fill="none" fill-rule="evenodd">
        <g id="PC_02_로그인A01_로그인" transform="translate(-838.000000, -534.000000)" fill="#FFFFFF">
            <g id="+-CONTENTS" transform="translate(788.000000, 178.000000)">
                <g id="login-with" transform="translate(34.000000, 340.000000)">
                    <g id="BtnLoginEmail">
                        <g id="icon-/-logo-/-icon_btn_naver" transform="translate(16.000000, 16.000000)">
                            <path d="M6,7 L11.9120591,7 C11.9120591,7 17.2836706,15.0987623 17.4443442,15.316939 C17.6035572,15.5330179 17.6232762,15.316939 17.6232762,15.316939 C17.3756927,14.0610242 17.1061993,13.4977506 17.1061993,11.4953498 L17.1061993,7 L23,7 L23,22 L17.1061993,22 C17.1061993,22 11.8459638,14.3333955 11.6878464,14.1222116 C11.5297289,13.9085802 11.5078189,14.1222116 11.5078189,14.1222116 C11.7097564,15.1575022 11.8901491,15.3312743 11.8901491,17.1270367 L11.8901491,22 L6,22 L6,7 Z" id="Fill-1"></path>
                        </g>
                    </g>
                </g>
            </g>
        </g>
    </g>
</svg>